<svg xmlns="http://www.w3.org/2000/svg" width="16" height="16" fill="currentColor" class="bi bi-question-diamond" viewBox="0 0 16 16">
  <path d="M6.99 6.83c0-.73.55-1.2 1.37-1.2.72 0 1.23.35 1.23.94 0 .44-.22.68-.74 1.02-.61.41-.9.78-.86 1.42v.29h1.05v-.22c0-.39.15-.58.68-.94.64-.43 1.02-.84 1.02-1.62 0-1.07-.96-1.82-2.34-1.82-1.49 0-2.46.83-2.49 2.13zm.84 3.84c0 .45.36.79.85.79s.85-.34.85-.79-.36-.8-.85-.8-.85.35-.85.8"/>
  <path d="M7.03.76a1.5 1.5 0 0 1 1.94 0l6.27 5.38a1.5 1.5 0 0 1 0 2.28L8.97 13.8a1.5 1.5 0 0 1-1.94 0L.76 8.42a1.5 1.5 0 0 1 0-2.28zm1.29.76a.5.5 0 0 0-.64 0L1.41 6.9a.5.5 0 0 0 0 .76l6.27 5.38a.5.5 0 0 0 .64 0l6.27-5.38a.5.5 0 0 0 0-.76z"/>
</svg>
